<svg width="32" height="24" viewBox="0 0 32 24" fill="none" xmlns="http://www.w3.org/2000/svg">
<path fill-rule="evenodd" clip-rule="evenodd" d="M1.40278 0H14.597C14.8136 0 15.0165 0.0525089 15.2 0.139018L9.57566 5.67869L9.57551 5.67881L9.57535 5.67903L7.96862 7.2L0.8 0.138894C0.983437 0.0524473 1.1862 0 1.40278 0ZM10.4 5.99995L15.8549 0.8C15.9453 0.980168 16 1.17935 16 1.39202V10.6078C16 10.8206 15.9451 11.0198 15.8547 11.2L10.4 5.99995ZM0.145326 0.8C0.0548757 0.980228 0 1.17944 0 1.39223V10.6079C0 10.8206 0.0548113 11.0198 0.145197 11.2L5.6 6.00008L0.145326 0.8ZM8.30045 7.99165L9.90739 6.40006L15.2 11.8547C15.0166 11.9451 14.8138 12 14.5972 12H1.403C1.18635 12 0.983469 11.9451 0.8 11.8545L6.09289 6.4L7.6373 7.99165C7.72888 8.08607 7.84891 8.13327 7.96887 8.13327C8.08884 8.13327 8.20884 8.08607 8.30045 7.99165Z" fill="#D7DEE4"/>
</svg>
